<svg id="Component_48_1" data-name="Component 48 – 1" xmlns="http://www.w3.org/2000/svg" width="101.728" height="139.261" viewBox="0 0 101.728 139.261">
  <g id="Group_1905" data-name="Group 1905" transform="translate(-1772 -143)">
    <g id="Group_586" data-name="Group 586" transform="translate(1780 143)">
      <circle id="Ellipse_2" data-name="Ellipse 2" cx="43.171" cy="43.171" r="43.171" fill="#ea4f2f"/>
    </g>
    <g id="Group_935" data-name="Group 935" transform="translate(1804 169)">
      <g id="Group_925" data-name="Group 925" transform="translate(0 20.777)">
        <g id="Group_918" data-name="Group 918" transform="translate(36.337)">
          <path id="Path_10920" data-name="Path 10920" d="M1682.888,620.137a1.105,1.105,0,0,1-.454-.1,1.142,1.142,0,0,1-.39-.256,1.2,1.2,0,0,1-.351-.843,1.085,1.085,0,0,1,.024-.231,1.059,1.059,0,0,1,.072-.223.858.858,0,0,1,.111-.207.813.813,0,0,1,.144-.183,1.207,1.207,0,0,1,1.083-.326c.072.016.151.04.223.064a1.784,1.784,0,0,1,.207.112,1.083,1.083,0,0,1,.175.151.844.844,0,0,1,.151.183,1.257,1.257,0,0,1,.112.207,1.016,1.016,0,0,1,.064.223,1.085,1.085,0,0,1,.024.231,1.1,1.1,0,0,1-.088.454,1.048,1.048,0,0,1-.263.389A1.178,1.178,0,0,1,1682.888,620.137Z" transform="translate(-1681.694 -617.749)" fill="#fff"/>
        </g>
        <g id="Group_919" data-name="Group 919" transform="translate(36.345 4.013)">
          <path id="Path_10921" data-name="Path 10921" d="M1681.7,628a1.2,1.2,0,0,1,1.187-1.195h0a1.2,1.2,0,0,1,1.2,1.195h0a1.2,1.2,0,0,1-1.2,1.195h0A1.191,1.191,0,0,1,1681.7,628Zm0-4.013a1.191,1.191,0,0,1,1.187-1.195h0a1.2,1.2,0,0,1,1.2,1.195h0a1.2,1.2,0,0,1-1.2,1.194h0A1.191,1.191,0,0,1,1681.7,623.983Z" transform="translate(-1681.704 -622.788)" fill="#fff"/>
        </g>
        <g id="Group_920" data-name="Group 920" transform="translate(36.337 12.044)">
          <path id="Path_10922" data-name="Path 10922" d="M1682.888,635.258a1.1,1.1,0,0,1-.454-.088,1.213,1.213,0,0,1-.741-1.107,1.2,1.2,0,0,1,.024-.231,1.231,1.231,0,0,1,.072-.223,1.04,1.04,0,0,1,.111-.207.769.769,0,0,1,.144-.175,1.108,1.108,0,0,1,.182-.151,1.073,1.073,0,0,1,.208-.112,1.152,1.152,0,0,1,1.3.263.8.8,0,0,1,.151.175,1.7,1.7,0,0,1,.112.207,1.158,1.158,0,0,1,.064.223,1.2,1.2,0,0,1,.024.231,1.136,1.136,0,0,1-.088.462,1.057,1.057,0,0,1-.263.39,1.118,1.118,0,0,1-.382.255A1.135,1.135,0,0,1,1682.888,635.258Z" transform="translate(-1681.694 -632.873)" fill="#fff"/>
        </g>
        <g id="Group_921" data-name="Group 921" transform="translate(4.037 12.048)">
          <path id="Path_10923" data-name="Path 10923" d="M1669.4,634.065a1.191,1.191,0,0,1,1.194-1.187h0a1.2,1.2,0,0,1,1.2,1.187h0a1.207,1.207,0,0,1-1.2,1.2h0A1.2,1.2,0,0,1,1669.4,634.065Zm-4.037,0a1.193,1.193,0,0,1,1.2-1.187h0a1.19,1.19,0,0,1,1.187,1.187h0a1.2,1.2,0,0,1-1.187,1.2h0A1.2,1.2,0,0,1,1665.359,634.065Zm-4.037,0a1.191,1.191,0,0,1,1.194-1.187h0a1.191,1.191,0,0,1,1.194,1.187h0a1.2,1.2,0,0,1-1.194,1.2h0A1.2,1.2,0,0,1,1661.321,634.065Zm-4.037,0a1.191,1.191,0,0,1,1.194-1.187h0a1.191,1.191,0,0,1,1.194,1.187h0a1.2,1.2,0,0,1-1.194,1.2h0A1.2,1.2,0,0,1,1657.284,634.065Zm-4.037,0a1.191,1.191,0,0,1,1.195-1.187h0a1.191,1.191,0,0,1,1.194,1.187h0a1.2,1.2,0,0,1-1.194,1.2h0A1.2,1.2,0,0,1,1653.246,634.065Zm-4.037,0a1.191,1.191,0,0,1,1.194-1.187h0a1.191,1.191,0,0,1,1.195,1.187h0a1.2,1.2,0,0,1-1.195,1.2h0A1.2,1.2,0,0,1,1649.209,634.065Zm-4.037,0a1.191,1.191,0,0,1,1.194-1.187h0a1.191,1.191,0,0,1,1.195,1.187h0a1.2,1.2,0,0,1-1.195,1.2h0A1.2,1.2,0,0,1,1645.171,634.065Zm-4.037,0a1.2,1.2,0,0,1,1.194-1.187h0a1.191,1.191,0,0,1,1.194,1.187h0a1.2,1.2,0,0,1-1.194,1.2h0A1.2,1.2,0,0,1,1641.134,634.065Z" transform="translate(-1641.134 -632.878)" fill="#fff"/>
        </g>
        <g id="Group_922" data-name="Group 922" transform="translate(0 12.044)">
          <path id="Path_10924" data-name="Path 10924" d="M1637.258,635.258a1.1,1.1,0,0,1-.454-.088,1.212,1.212,0,0,1-.741-1.107,1.193,1.193,0,0,1,.024-.231,1.157,1.157,0,0,1,.072-.223,1.048,1.048,0,0,1,.112-.207.765.765,0,0,1,.143-.175,1.231,1.231,0,0,1,1.082-.334,1.2,1.2,0,0,1,.224.072.983.983,0,0,1,.2.112.844.844,0,0,1,.183.151.8.8,0,0,1,.151.175,1.82,1.82,0,0,1,.111.207,1.167,1.167,0,0,1,.064.223,1.2,1.2,0,0,1,.024.231,1.168,1.168,0,0,1-.35.852,1.109,1.109,0,0,1-.382.255A1.136,1.136,0,0,1,1637.258,635.258Z" transform="translate(-1636.064 -632.873)" fill="#fff"/>
        </g>
        <g id="Group_923" data-name="Group 923" transform="translate(0 4.013)">
          <path id="Path_10925" data-name="Path 10925" d="M1636.064,628a1.2,1.2,0,0,1,1.194-1.195h0a1.2,1.2,0,0,1,1.194,1.195h0a1.193,1.193,0,0,1-1.194,1.195h0A1.193,1.193,0,0,1,1636.064,628Zm0-4.013a1.193,1.193,0,0,1,1.194-1.195h0a1.193,1.193,0,0,1,1.194,1.195h0a1.193,1.193,0,0,1-1.194,1.194h0A1.193,1.193,0,0,1,1636.064,623.983Z" transform="translate(-1636.064 -622.788)" fill="#fff"/>
        </g>
        <g id="Group_924" data-name="Group 924">
          <path id="Path_10926" data-name="Path 10926" d="M1637.258,620.137a1.1,1.1,0,0,1-.454-.1,1.143,1.143,0,0,1-.39-.256,1.2,1.2,0,0,1-.35-.843,1.077,1.077,0,0,1,.024-.231,1,1,0,0,1,.072-.223.651.651,0,0,1,.112-.207.809.809,0,0,1,.143-.183,1.206,1.206,0,0,1,1.082-.326,2.288,2.288,0,0,1,.224.064c.072.032.135.072.207.112a1.047,1.047,0,0,1,.175.151.842.842,0,0,1,.151.183,1.325,1.325,0,0,1,.111.207,1.8,1.8,0,0,1,.064.223,1.085,1.085,0,0,1,.024.231,1.244,1.244,0,0,1-.088.454,1.153,1.153,0,0,1-.263.389A1.177,1.177,0,0,1,1637.258,620.137Z" transform="translate(-1636.064 -617.749)" fill="#fff"/>
        </g>
      </g>
      <g id="Group_928" data-name="Group 928" transform="translate(18.172)">
        <g id="Group_926" data-name="Group 926">
          <path id="Path_10927" data-name="Path 10927" d="M1660.078,594.047a1.194,1.194,0,0,1-.844-.35,1.163,1.163,0,0,1-.35-.844,1.079,1.079,0,0,1,.024-.231c.016-.08.04-.151.064-.231a1.609,1.609,0,0,1,.111-.2,1.219,1.219,0,0,1,.334-.334,1.505,1.505,0,0,1,.2-.112,1.95,1.95,0,0,1,.231-.064,1.128,1.128,0,0,1,.462,0,1.85,1.85,0,0,1,.223.064,1.6,1.6,0,0,1,.207.112,1.763,1.763,0,0,1,.183.15,1.193,1.193,0,0,1,.151.184.944.944,0,0,1,.1.2,1.279,1.279,0,0,1,.072.231,1.072,1.072,0,0,1,.024.231,1.209,1.209,0,0,1-.35.844,1.293,1.293,0,0,1-.39.263A1.245,1.245,0,0,1,1660.078,594.047Z" transform="translate(-1658.884 -591.658)" fill="#fff"/>
        </g>
        <g id="Group_927" data-name="Group 927" transform="translate(0 3.751)">
          <path id="Path_10928" data-name="Path 10928" d="M1658.884,612.565a1.193,1.193,0,0,1,1.195-1.195h0a1.193,1.193,0,0,1,1.194,1.195h0a1.193,1.193,0,0,1-1.194,1.195h0A1.193,1.193,0,0,1,1658.884,612.565Zm0-3.751a1.193,1.193,0,0,1,1.195-1.195h0a1.193,1.193,0,0,1,1.194,1.195h0a1.193,1.193,0,0,1-1.194,1.195h0A1.193,1.193,0,0,1,1658.884,608.815Zm0-3.751a1.193,1.193,0,0,1,1.195-1.195h0a1.193,1.193,0,0,1,1.194,1.195h0a1.193,1.193,0,0,1-1.194,1.194h0A1.193,1.193,0,0,1,1658.884,605.064Zm0-3.751a1.193,1.193,0,0,1,1.195-1.195h0a1.193,1.193,0,0,1,1.194,1.195h0a1.193,1.193,0,0,1-1.194,1.195h0A1.193,1.193,0,0,1,1658.884,601.313Zm0-3.751a1.193,1.193,0,0,1,1.195-1.194h0a1.193,1.193,0,0,1,1.194,1.194h0a1.193,1.193,0,0,1-1.194,1.195h0A1.193,1.193,0,0,1,1658.884,597.562Z" transform="translate(-1658.884 -596.368)" fill="#fff"/>
        </g>
      </g>
      <g id="Group_934" data-name="Group 934" transform="translate(10.695 15.361)">
        <g id="Group_929" data-name="Group 929" transform="translate(14.955 0.001)">
          <path id="Path_10929" data-name="Path 10929" d="M1669.469,613.337a1.243,1.243,0,0,1-.454-.088,1.3,1.3,0,0,1-.39-.263,1.192,1.192,0,0,1,0-1.688,1.011,1.011,0,0,1,.183-.143,1.023,1.023,0,0,1,.207-.111,1.036,1.036,0,0,1,.223-.072,1.191,1.191,0,0,1,1.075.326,1.21,1.21,0,0,1,.35.844,1.319,1.319,0,0,1-.088.462,1.274,1.274,0,0,1-.645.645A1.32,1.32,0,0,1,1669.469,613.337Z" transform="translate(-1668.274 -610.949)" fill="#fff"/>
        </g>
        <g id="Group_930" data-name="Group 930" transform="translate(9.968 2.497)">
          <path id="Path_10930" data-name="Path 10930" d="M1662.364,618.61a1.186,1.186,0,0,1,0-1.688h0a1.2,1.2,0,0,1,1.688,0h0a1.187,1.187,0,0,1,0,1.688h0a1.168,1.168,0,0,1-.844.35h0A1.169,1.169,0,0,1,1662.364,618.61Zm2.493-2.493a1.187,1.187,0,0,1,0-1.688h0a1.2,1.2,0,0,1,1.688,0h0a1.187,1.187,0,0,1,0,1.688h0a1.168,1.168,0,0,1-.844.35h0A1.169,1.169,0,0,1,1664.856,616.118Z" transform="translate(-1662.011 -614.083)" fill="#fff"/>
        </g>
        <g id="Group_931" data-name="Group 931" transform="translate(7.478 7.482)">
          <path id="Path_10931" data-name="Path 10931" d="M1660.078,622.735a1.184,1.184,0,0,1-.462-.095,1.273,1.273,0,0,1-.645-.645,1.286,1.286,0,0,1-.088-.462,1.174,1.174,0,0,1,.35-.836,1.211,1.211,0,0,1,1.075-.334,1.058,1.058,0,0,1,.223.072,1.078,1.078,0,0,1,.207.111,1.131,1.131,0,0,1,.183.152,1.044,1.044,0,0,1,.151.175,1,1,0,0,1,.1.207,1.125,1.125,0,0,1,.1.454,1.289,1.289,0,0,1-.088.462,1.271,1.271,0,0,1-.263.382A1.167,1.167,0,0,1,1660.078,622.735Z" transform="translate(-1658.884 -620.343)" fill="#fff"/>
        </g>
        <g id="Group_932" data-name="Group 932" transform="translate(2.49 2.497)">
          <path id="Path_10932" data-name="Path 10932" d="M1655.466,618.61a1.187,1.187,0,0,1,0-1.688h0a1.2,1.2,0,0,1,1.688,0h0a1.187,1.187,0,0,1,0,1.688h0a1.168,1.168,0,0,1-.844.35h0A1.154,1.154,0,0,1,1655.466,618.61Zm-2.493-2.485a1.2,1.2,0,0,1,0-1.7h0a1.2,1.2,0,0,1,1.688,0h0a1.211,1.211,0,0,1,0,1.7h0a1.193,1.193,0,0,1-.844.342h0A1.18,1.18,0,0,1,1652.974,616.126Z" transform="translate(-1652.621 -614.083)" fill="#fff"/>
        </g>
        <g id="Group_933" data-name="Group 933">
          <path id="Path_10933" data-name="Path 10933" d="M1650.688,613.337a1.148,1.148,0,0,1-.844-.35,1.163,1.163,0,0,1-.35-.844,1.206,1.206,0,0,1,.35-.844.764.764,0,0,1,.175-.143,1.315,1.315,0,0,1,.207-.112,1.211,1.211,0,0,1,.223-.072,1.164,1.164,0,0,1,.47,0,1.342,1.342,0,0,1,.613.326,1.192,1.192,0,0,1,0,1.688A1.161,1.161,0,0,1,1650.688,613.337Z" transform="translate(-1649.494 -610.948)" fill="#fff"/>
        </g>
      </g>
    </g>
  </g>
  <path id="Path_14917" data-name="Path 14917" d="M-44.446-12.036h3.978a11.354,11.354,0,0,1,2.746.323,6.283,6.283,0,0,1,2.269,1.045,5.121,5.121,0,0,1,1.539,1.879,6.3,6.3,0,0,1,.569,2.8A5.723,5.723,0,0,1-33.9-3.409a5.538,5.538,0,0,1-1.488,1.87A6.576,6.576,0,0,1-37.544-.391,8.384,8.384,0,0,1-40.111,0h-4.335Zm2.652,9.588h1.377a7.412,7.412,0,0,0,1.708-.187,3.651,3.651,0,0,0,1.368-.621,2.976,2.976,0,0,0,.91-1.139A4.039,4.039,0,0,0-36.1-6.12a3.364,3.364,0,0,0-.332-1.538,3.076,3.076,0,0,0-.892-1.079,3.906,3.906,0,0,0-1.318-.638,5.851,5.851,0,0,0-1.59-.212h-1.564Zm10.982-1.683a4.328,4.328,0,0,1,.357-1.785,4.109,4.109,0,0,1,.978-1.369,4.317,4.317,0,0,1,1.462-.875,5.207,5.207,0,0,1,1.793-.306,5.207,5.207,0,0,1,1.794.306,4.317,4.317,0,0,1,1.462.875,4.109,4.109,0,0,1,.977,1.369,4.328,4.328,0,0,1,.357,1.785,4.328,4.328,0,0,1-.357,1.785,4.109,4.109,0,0,1-.977,1.369A4.317,4.317,0,0,1-24.429-.1,5.207,5.207,0,0,1-26.222.2,5.207,5.207,0,0,1-28.016-.1a4.317,4.317,0,0,1-1.462-.876,4.109,4.109,0,0,1-.978-1.369A4.328,4.328,0,0,1-30.812-4.131Zm2.55,0a2.138,2.138,0,0,0,.535,1.513,1.949,1.949,0,0,0,1.5.578,1.949,1.949,0,0,0,1.5-.578,2.138,2.138,0,0,0,.535-1.513,2.138,2.138,0,0,0-.535-1.513,1.949,1.949,0,0,0-1.5-.578,1.949,1.949,0,0,0-1.5.578A2.138,2.138,0,0,0-28.262-4.131Zm8.5-4.131h2.72l1.683,5.185h.034l1.411-5.185h2.788L-9.6-3.077h.034l1.547-5.185h2.584L-8.372,0h-2.516l-1.717-5.491h-.034L-14.169,0h-2.567Zm16.507,0H-.807V-7.14h.034a2.066,2.066,0,0,1,.34-.476,2.473,2.473,0,0,1,.527-.425,3.013,3.013,0,0,1,.7-.306,2.907,2.907,0,0,1,.85-.119,3.512,3.512,0,0,1,1.564.3,2.262,2.262,0,0,1,.926.824A3.335,3.335,0,0,1,4.582-6.1,9.424,9.424,0,0,1,4.7-4.556V0H2.151V-4.046q0-.357-.025-.74a2.333,2.333,0,0,0-.153-.706,1.218,1.218,0,0,0-.391-.527,1.215,1.215,0,0,0-.756-.2,1.574,1.574,0,0,0-.8.179,1.217,1.217,0,0,0-.468.476A1.946,1.946,0,0,0-.654-4.9a5.787,5.787,0,0,0-.051.782V0h-2.55ZM7.9-12.852h2.55V0H7.9Zm5.44,8.721a4.328,4.328,0,0,1,.357-1.785,4.109,4.109,0,0,1,.978-1.369,4.317,4.317,0,0,1,1.462-.875,5.207,5.207,0,0,1,1.793-.306,5.207,5.207,0,0,1,1.794.306,4.317,4.317,0,0,1,1.462.875,4.109,4.109,0,0,1,.977,1.369,4.328,4.328,0,0,1,.357,1.785,4.328,4.328,0,0,1-.357,1.785,4.109,4.109,0,0,1-.977,1.369A4.317,4.317,0,0,1,19.72-.1,5.207,5.207,0,0,1,17.927.2,5.207,5.207,0,0,1,16.133-.1a4.317,4.317,0,0,1-1.462-.876,4.109,4.109,0,0,1-.978-1.369A4.328,4.328,0,0,1,13.337-4.131Zm2.55,0a2.138,2.138,0,0,0,.535,1.513,1.949,1.949,0,0,0,1.5.578,1.949,1.949,0,0,0,1.5-.578,2.138,2.138,0,0,0,.535-1.513,2.138,2.138,0,0,0-.535-1.513,1.949,1.949,0,0,0-1.5-.578,1.949,1.949,0,0,0-1.5.578A2.138,2.138,0,0,0,15.887-4.131ZM30.558-1.037h-.034a2.4,2.4,0,0,1-1.13.952A3.886,3.886,0,0,1,27.906.2,3.835,3.835,0,0,1,26.792.043a2.81,2.81,0,0,1-.943-.485,2.34,2.34,0,0,1-.646-.8,2.44,2.44,0,0,1-.238-1.105,2.534,2.534,0,0,1,.264-1.207,2.358,2.358,0,0,1,.714-.816,3.546,3.546,0,0,1,1.028-.5,7.508,7.508,0,0,1,1.2-.264,11.448,11.448,0,0,1,1.241-.1q.621-.017,1.148-.017a1.326,1.326,0,0,0-.484-1.08,1.747,1.747,0,0,0-1.148-.4,2.5,2.5,0,0,0-1.148.264,3.135,3.135,0,0,0-.926.722L25.492-7.14a4.679,4.679,0,0,1,1.666-.995,5.954,5.954,0,0,1,1.972-.332,5.156,5.156,0,0,1,1.844.281,2.682,2.682,0,0,1,1.156.824,3.177,3.177,0,0,1,.6,1.335A8.758,8.758,0,0,1,32.9-4.2V0H30.558Zm-.629-2.584q-.289,0-.722.026a3.661,3.661,0,0,0-.833.144,1.854,1.854,0,0,0-.68.357.822.822,0,0,0-.281.663.729.729,0,0,0,.391.68,1.636,1.636,0,0,0,.816.221,2.559,2.559,0,0,0,.722-.1,2.155,2.155,0,0,0,.621-.289A1.4,1.4,0,0,0,30.4-2.4a1.372,1.372,0,0,0,.162-.68v-.544ZM44.531,0H42.186V-1.088h-.034a2.818,2.818,0,0,1-.4.451,3.023,3.023,0,0,1-.578.417,3.538,3.538,0,0,1-.731.306A2.873,2.873,0,0,1,39.618.2a4.258,4.258,0,0,1-1.666-.314,3.715,3.715,0,0,1-1.284-.884,3.942,3.942,0,0,1-.825-1.352,4.918,4.918,0,0,1-.289-1.717,5.207,5.207,0,0,1,.264-1.658,4.561,4.561,0,0,1,.748-1.4A3.654,3.654,0,0,1,37.748-8.1a3.353,3.353,0,0,1,1.581-.366,4.382,4.382,0,0,1,1.487.247,2.38,2.38,0,0,1,1.131.842h.034v-5.474h2.55ZM42.186-4.131a2.138,2.138,0,0,0-.536-1.513,1.949,1.949,0,0,0-1.5-.578,1.949,1.949,0,0,0-1.5.578,2.138,2.138,0,0,0-.535,1.513,2.138,2.138,0,0,0,.535,1.513,1.949,1.949,0,0,0,1.5.578,1.949,1.949,0,0,0,1.5-.578A2.138,2.138,0,0,0,42.186-4.131ZM-47.566,11.31H-51V8.964h9.52V11.31h-3.434V21h-2.652ZM-36.55,8.148V13.86h.034a1.532,1.532,0,0,1,.289-.476,2.261,2.261,0,0,1,.493-.425,2.685,2.685,0,0,1,.68-.306,2.907,2.907,0,0,1,.85-.119,3.512,3.512,0,0,1,1.564.3,2.262,2.262,0,0,1,.927.825,3.335,3.335,0,0,1,.45,1.241,9.424,9.424,0,0,1,.119,1.547V21h-2.55V16.954q0-.357-.025-.74a2.333,2.333,0,0,0-.153-.706,1.218,1.218,0,0,0-.391-.527,1.215,1.215,0,0,0-.757-.2,1.574,1.574,0,0,0-.8.178,1.217,1.217,0,0,0-.467.476,1.946,1.946,0,0,0-.213.672,5.787,5.787,0,0,0-.051.782V21H-39.1V8.148Zm16.388,11.424a4.069,4.069,0,0,1-1.547,1.207,4.634,4.634,0,0,1-1.938.425,5.207,5.207,0,0,1-1.793-.306,4.317,4.317,0,0,1-1.462-.876,4.109,4.109,0,0,1-.977-1.368,4.328,4.328,0,0,1-.357-1.785,4.328,4.328,0,0,1,.357-1.785,4.109,4.109,0,0,1,.977-1.368,4.317,4.317,0,0,1,1.462-.875,5.207,5.207,0,0,1,1.793-.306,4.08,4.08,0,0,1,1.607.306,3.345,3.345,0,0,1,1.224.875,3.987,3.987,0,0,1,.773,1.368,5.516,5.516,0,0,1,.272,1.785v.8h-5.916a2.018,2.018,0,0,0,.663,1.165,1.876,1.876,0,0,0,1.258.434,1.915,1.915,0,0,0,1.063-.281,2.857,2.857,0,0,0,.757-.722Zm-2.159-3.638a1.476,1.476,0,0,0-.425-1.1,1.511,1.511,0,0,0-1.139-.459,1.915,1.915,0,0,0-.748.136,1.875,1.875,0,0,0-.552.349,1.528,1.528,0,0,0-.357.493,1.623,1.623,0,0,0-.145.587Zm12.172-6.97h4.658a8.219,8.219,0,0,1,1.742.178,4.134,4.134,0,0,1,1.445.6,2.965,2.965,0,0,1,.986,1.122,3.8,3.8,0,0,1,.365,1.76,3.533,3.533,0,0,1-.663,2.168,2.985,2.985,0,0,1-1.938,1.13L-.493,21H-3.672l-2.516-4.811H-7.5V21h-2.652ZM-7.5,13.945h1.564q.357,0,.756-.026a2.37,2.37,0,0,0,.722-.153,1.25,1.25,0,0,0,.536-.4,1.216,1.216,0,0,0,.213-.765,1.27,1.27,0,0,0-.187-.731,1.247,1.247,0,0,0-.476-.417,2.112,2.112,0,0,0-.663-.2,5.408,5.408,0,0,0-.731-.051H-7.5ZM9.724,19.572a4.069,4.069,0,0,1-1.547,1.207,4.634,4.634,0,0,1-1.938.425A5.207,5.207,0,0,1,4.445,20.9a4.317,4.317,0,0,1-1.462-.876,4.109,4.109,0,0,1-.978-1.368,4.641,4.641,0,0,1,0-3.57,4.109,4.109,0,0,1,.978-1.368,4.317,4.317,0,0,1,1.462-.875,5.207,5.207,0,0,1,1.794-.306,4.08,4.08,0,0,1,1.607.306,3.345,3.345,0,0,1,1.224.875,3.987,3.987,0,0,1,.774,1.368,5.516,5.516,0,0,1,.272,1.785v.8H4.2a2.018,2.018,0,0,0,.663,1.165,1.876,1.876,0,0,0,1.258.434,1.915,1.915,0,0,0,1.063-.281,2.857,2.857,0,0,0,.756-.722ZM7.565,15.934a1.476,1.476,0,0,0-.425-1.1A1.511,1.511,0,0,0,6,14.37a1.915,1.915,0,0,0-.748.136,1.875,1.875,0,0,0-.552.349,1.528,1.528,0,0,0-.357.493,1.623,1.623,0,0,0-.144.587Zm5.695-3.2h2.346v1.088h.034a2.817,2.817,0,0,1,.4-.451,3.023,3.023,0,0,1,.578-.417,3.6,3.6,0,0,1,.722-.306,2.846,2.846,0,0,1,.833-.119,4.258,4.258,0,0,1,1.666.314,3.715,3.715,0,0,1,1.283.884,3.942,3.942,0,0,1,.825,1.351,4.918,4.918,0,0,1,.289,1.717,5.207,5.207,0,0,1-.264,1.658,4.561,4.561,0,0,1-.748,1.4,3.654,3.654,0,0,1-1.181.977,3.353,3.353,0,0,1-1.581.366,4.381,4.381,0,0,1-1.487-.247,2.38,2.38,0,0,1-1.13-.842H15.81v4.76H13.26Zm2.346,4.131a2.138,2.138,0,0,0,.535,1.513,1.949,1.949,0,0,0,1.5.578,1.949,1.949,0,0,0,1.5-.578,2.138,2.138,0,0,0,.536-1.513,2.138,2.138,0,0,0-.536-1.513,1.949,1.949,0,0,0-1.5-.578,1.949,1.949,0,0,0-1.5.578A2.138,2.138,0,0,0,15.606,16.869Zm9.18,0a4.328,4.328,0,0,1,.357-1.785,4.109,4.109,0,0,1,.978-1.368,4.317,4.317,0,0,1,1.462-.875,5.409,5.409,0,0,1,3.587,0,4.317,4.317,0,0,1,1.462.875,4.109,4.109,0,0,1,.978,1.368,4.641,4.641,0,0,1,0,3.57,4.109,4.109,0,0,1-.978,1.368,4.317,4.317,0,0,1-1.462.876,5.409,5.409,0,0,1-3.587,0,4.317,4.317,0,0,1-1.462-.876,4.109,4.109,0,0,1-.978-1.368A4.328,4.328,0,0,1,24.786,16.869Zm2.55,0a2.138,2.138,0,0,0,.535,1.513,2.247,2.247,0,0,0,3.009,0,2.138,2.138,0,0,0,.535-1.513,2.138,2.138,0,0,0-.535-1.513,2.247,2.247,0,0,0-3.009,0A2.138,2.138,0,0,0,27.336,16.869Zm9.486-4.131h2.55v1.326h.034a3.134,3.134,0,0,1,.969-1.147,2.45,2.45,0,0,1,1.411-.383q.221,0,.442.017a2.189,2.189,0,0,1,.408.068v2.329a3.852,3.852,0,0,0-.535-.128,3.468,3.468,0,0,0-.553-.042,2.709,2.709,0,0,0-1.156.2,1.535,1.535,0,0,0-.654.569,2.164,2.164,0,0,0-.3.875,8.525,8.525,0,0,0-.068,1.122V21h-2.55Zm13.906,2.04H48.484v2.754a5.183,5.183,0,0,0,.034.621,1.25,1.25,0,0,0,.153.484.773.773,0,0,0,.366.315,1.621,1.621,0,0,0,.654.111,4.408,4.408,0,0,0,.535-.042.908.908,0,0,0,.5-.2v2.125a3.858,3.858,0,0,1-.884.2,8.156,8.156,0,0,1-.9.051,4.9,4.9,0,0,1-1.19-.136,2.714,2.714,0,0,1-.952-.434,2.03,2.03,0,0,1-.638-.774,2.644,2.644,0,0,1-.229-1.156V14.778H44.3v-2.04h1.632V10.29h2.55v2.448h2.244Z" transform="translate(51 114.385)" fill="#4e4e4e"/>
</svg>
